# xmcd
#
# Track frame offsets:
#	150
#	26114
#	48976
#	71430
#	91632
#	127385
#	152237
#	156208
#	173975
#	197134
#	222686
#
# Disc length: 3434 seconds
#
# Revision: 1
# Processed by: cddbd v1.5.2PL0 Copyright (c) Steve Scherf et al.
# Submitted via: audiograbber 1.83.01
#
DISCID=a10d680b
DTITLE=Robert Kidney - Jackleg
DYEAR=2015
DGENRE=Blues
TTITLE0=Big Paradise
TTITLE1=Wolf
TTITLE2=Back to Disaster
TTITLE3=Red Stick
TTITLE4=Empty Blues
TTITLE5=Blue Collar
TTITLE6=No Lock No Key
TTITLE7=Rosalee
TTITLE8=You Know Me
TTITLE9=Heaven's Day
TTITLE10=Untitled
EXTD=
EXTT0=
EXTT1=
EXTT2=
EXTT3=
EXTT4=
EXTT5=
EXTT6=
EXTT7=
EXTT8=
EXTT9=
EXTT10=
PLAYORDER=
